<svg width="48" height="48" viewBox="0 0 48 48" fill="none" xmlns="http://www.w3.org/2000/svg">
<path d="M47.9771 37.8566C48.0788 38.6358 47.8414 39.3134 47.2657 39.8892L40.5074 46.5964C40.2025 46.9352 39.8046 47.2234 39.3134 47.4603C38.8222 47.6975 38.3395 47.8499 37.8654 47.9176C37.8315 47.9176 37.7297 47.9263 37.5602 47.9432C37.3911 47.9601 37.1709 47.9687 36.8999 47.9687C36.256 47.9687 35.2143 47.8586 33.7745 47.6384C32.3348 47.4181 30.5733 46.876 28.4901 46.0123C26.4064 45.1485 24.0436 43.8525 21.4014 42.125C18.7591 40.3976 15.9473 38.0261 12.9662 35.011C10.5949 32.6736 8.63004 30.4377 7.07173 28.3036C5.51343 26.1693 4.26001 24.1961 3.31148 22.3837C2.36286 20.5713 1.65146 18.9283 1.1772 17.4547C0.70293 15.9811 0.381107 14.7107 0.211726 13.6436C0.0423452 12.5765 -0.0254071 11.7381 0.00846904 11.1283C0.0423452 10.5185 0.0592833 10.1798 0.0592833 10.112C0.127036 9.63777 0.279478 9.15503 0.516612 8.66383C0.753745 8.17262 1.04169 7.77458 1.38045 7.46969L8.13875 0.711399C8.61302 0.237133 9.15503 0 9.7648 0C10.2052 0 10.5948 0.127036 10.9335 0.381107C11.2723 0.635178 11.5602 0.948533 11.7974 1.32117L17.2345 11.6365C17.5394 12.1785 17.6241 12.7713 17.4886 13.415C17.3531 14.0586 17.0651 14.6006 16.6247 15.041L14.1348 17.5309C14.0671 17.5987 14.0078 17.7088 13.957 17.8612C13.9062 18.0137 13.8808 18.1407 13.8808 18.2423C14.0163 18.9537 14.3211 19.7667 14.7954 20.6814C15.2019 21.4944 15.8286 22.4853 16.6755 23.654C17.5224 24.8228 18.725 26.1693 20.2834 27.6937C21.8078 29.2522 23.1628 30.4631 24.3485 31.3271C25.5339 32.1906 26.5251 32.826 27.3212 33.2325C28.1173 33.639 28.7271 33.8846 29.1504 33.9691L29.7854 34.0962C29.8532 34.0962 29.9636 34.0707 30.1158 34.02C30.2683 33.9691 30.3784 33.9099 30.4462 33.842L33.3425 30.8948C33.9526 30.3529 34.6637 30.0819 35.4768 30.0819C36.0529 30.0819 36.51 30.1834 36.8487 30.3868H36.8994L46.7065 36.1796C47.4182 36.6203 47.8415 37.1791 47.9771 37.8566Z" fill="white"/>
</svg>
