<svg width="34" height="34" viewBox="0 0 34 34" fill="none" xmlns="http://www.w3.org/2000/svg">
<path d="M29.4856 4.92455C28.6125 5.27543 3.83059 15.9045 3.83059 15.9045C3.83059 15.9045 2.63039 16.322 2.72559 17.0931C2.82079 17.8643 3.79999 18.2172 3.79999 18.2172L10.1784 20.4013C10.1784 20.4013 12.1042 26.826 12.4836 28.0452C12.863 29.2665 13.1663 29.2951 13.1663 29.2951C13.5186 29.4515 13.8409 29.2019 13.8409 29.2019L17.9624 25.3789L24.387 30.3899C26.1237 31.161 26.7554 29.5548 26.7554 29.5548L31.1816 6.48583C31.5732 4.70083 30.4077 4.55531 29.4856 4.92455Z" stroke="white" stroke-width="3" stroke-miterlimit="10"/>
<path d="M10 21.2L27 10L18 24.5" stroke="white" stroke-width="2" stroke-miterlimit="10" stroke-linecap="round" stroke-linejoin="round"/>
</svg>
