<svg width="34" height="34" viewBox="0 0 34 34" fill="none" xmlns="http://www.w3.org/2000/svg">
<g clip-path="url(#clip0_62_255)">
<path d="M25.158 19.5368C25.0918 19.5051 22.6131 18.2845 22.1726 18.126C21.9928 18.0614 21.8002 17.9983 21.5953 17.9983C21.2606 17.9983 20.9794 18.1651 20.7604 18.4928C20.5128 18.8608 19.7633 19.737 19.5317 19.9987C19.5014 20.0333 19.4601 20.0746 19.4354 20.0746C19.4132 20.0746 19.0296 19.9166 18.9135 19.8661C16.2545 18.7111 14.2363 15.9336 13.9595 15.4652C13.92 15.3979 13.9184 15.3673 13.918 15.3673C13.9277 15.3317 14.0172 15.242 14.0633 15.1958C14.1983 15.0622 14.3446 14.8861 14.4861 14.7158C14.5531 14.6351 14.6202 14.5543 14.6861 14.4781C14.8914 14.2392 14.9829 14.0538 15.0888 13.839L15.1444 13.7274C15.4031 13.2133 15.1821 12.7795 15.1107 12.6394C15.0521 12.5221 14.0055 9.99621 13.8942 9.73083C13.6266 9.09046 13.273 8.7923 12.7817 8.7923C12.7361 8.7923 12.7817 8.7923 12.5905 8.80036C12.3577 8.81018 11.0899 8.97709 10.5293 9.33045C9.93485 9.70522 8.9292 10.8999 8.9292 13.0008C8.9292 14.8917 10.1291 16.677 10.6443 17.356C10.6571 17.3731 10.6806 17.4079 10.7148 17.4578C12.6877 20.3392 15.1473 22.4745 17.6407 23.4706C20.0411 24.4294 21.1778 24.5403 21.824 24.5403C21.8241 24.5403 21.8241 24.5403 21.8241 24.5403C22.0957 24.5403 22.313 24.5189 22.5048 24.5001L22.6264 24.4885C23.4557 24.415 25.278 23.4707 25.6925 22.3188C26.019 21.4115 26.1051 20.4202 25.8879 20.0604C25.7391 19.8158 25.4827 19.6927 25.158 19.5368Z" fill="white"/>
<path d="M17.3018 0C8.09352 0 0.60204 7.43518 0.60204 16.5742C0.60204 19.5301 1.39309 22.4236 2.89163 24.9559L0.023377 33.4167C-0.0300516 33.5744 0.00968865 33.7489 0.126371 33.8676C0.210598 33.9536 0.324851 34 0.441533 34C0.486241 34 0.53128 33.9933 0.575215 33.9792L9.39756 31.1758C11.8118 32.4657 14.5404 33.1466 17.3019 33.1466C26.5093 33.1467 34 25.7123 34 16.5742C34 7.43518 26.5093 0 17.3018 0ZM17.3018 29.6941C14.7033 29.6941 12.1866 28.9438 10.0231 27.5242C9.95039 27.4764 9.86594 27.4519 9.78094 27.4519C9.73601 27.4519 9.69097 27.4588 9.64715 27.4727L5.2277 28.8775L6.65437 24.6684C6.70052 24.5322 6.67744 24.382 6.59244 24.2658C4.94499 22.0148 4.07413 19.3552 4.07413 16.5742C4.07413 9.33896 10.008 3.45255 17.3017 3.45255C24.5945 3.45255 30.5277 9.33896 30.5277 16.5742C30.5278 23.8086 24.5947 29.6941 17.3018 29.6941Z" fill="white"/>
</g>
<defs>
<clipPath id="clip0_62_255">
<rect width="34" height="34" fill="white"/>
</clipPath>
</defs>
</svg>
