<?xml version="1.0" standalone="no"?>
<!DOCTYPE svg PUBLIC "-//W3C//DTD SVG 20010904//EN"
 "http://www.w3.org/TR/2001/REC-SVG-20010904/DTD/svg10.dtd">
<svg version="1.0" xmlns="http://www.w3.org/2000/svg"
 width="640.000000pt" height="640.000000pt" viewBox="0 0 640.000000 640.000000"
 preserveAspectRatio="xMidYMid meet">
<metadata>
Created by potrace 1.14, written by Peter Selinger 2001-2017
</metadata>
<g transform="translate(0.000000,640.000000) scale(0.100000,-0.100000)"
fill="#000000" stroke="none">
<path d="M4493 5845 c-98 -30 -192 -111 -277 -239 l-46 -70 0 37 c0 24 -5 40
-15 43 -16 6 -214 -45 -398 -102 -60 -19 -120 -34 -134 -34 -36 0 -467 -147
-693 -236 -223 -89 -509 -235 -672 -346 -31 -21 -59 -38 -62 -38 -3 0 -29 21
-58 48 -92 83 -227 184 -238 177 -5 -3 -10 -23 -10 -44 0 -47 -33 -99 -77
-120 -43 -21 -41 -31 6 -31 32 0 44 6 70 35 17 20 31 41 31 48 0 7 4 18 9 26
8 12 30 -4 105 -73 53 -48 96 -95 95 -104 0 -18 -90 -92 -110 -92 -6 0 -35 13
-63 29 -103 59 -396 168 -416 156 -7 -4 -9 -22 -5 -45 8 -49 -15 -100 -64
-140 -32 -27 -34 -30 -13 -30 57 0 118 57 128 121 l6 37 37 -15 c20 -8 105
-49 189 -90 l154 -77 -54 -51 c-29 -28 -81 -81 -115 -118 l-62 -67 -79 40
c-129 64 -440 180 -483 180 -29 0 -32 -21 -10 -71 30 -65 27 -134 -9 -205 -16
-32 -27 -60 -24 -63 2 -3 20 11 39 29 46 45 68 104 63 174 -1 31 0 56 3 56 28
0 449 -186 449 -198 0 -4 -25 -43 -56 -87 -30 -44 -71 -108 -91 -143 -27 -49
-39 -62 -52 -56 -85 37 -434 124 -496 124 -36 0 -40 -20 -13 -71 25 -48 30
-132 15 -224 l-9 -50 25 23 c14 13 30 43 37 67 13 45 10 144 -5 179 -7 15 -4
17 11 13 10 -3 70 -20 133 -37 93 -26 266 -85 279 -96 2 -1 -10 -31 -26 -66
-16 -34 -44 -106 -62 -158 -18 -52 -35 -96 -36 -98 -1 -2 -38 8 -82 22 -74 23
-258 56 -315 56 -44 0 -43 -30 2 -68 32 -26 45 -47 63 -103 27 -85 42 -77 36
21 l-4 72 46 -7 c36 -6 216 -61 228 -70 2 -2 -3 -29 -11 -61 -8 -33 -18 -76
-21 -96 l-7 -38 -125 7 c-148 7 -156 3 -114 -64 15 -24 31 -59 34 -78 4 -19
11 -35 15 -35 15 0 22 66 11 95 l-10 27 57 -6 c32 -4 72 -10 90 -13 l32 -5 -5
-71 c-3 -40 -7 -78 -10 -84 -2 -9 -24 -13 -62 -13 -77 0 -95 -17 -61 -58 13
-15 33 -45 44 -65 11 -20 23 -37 27 -37 11 0 10 44 -2 74 -9 24 -7 26 19 26
l29 0 7 -97 c8 -126 30 -269 55 -359 17 -64 18 -75 5 -119 -37 -121 -85 -460
-85 -595 0 -78 29 -133 89 -169 62 -37 639 -310 699 -330 86 -29 144 -35 214
-21 60 12 69 11 180 -19 64 -17 121 -31 125 -31 4 0 -16 16 -46 36 -83 56
-207 180 -262 263 -99 147 -183 349 -239 572 -81 318 -84 636 -11 877 11 34
17 62 15 62 -10 0 -118 -175 -146 -237 -17 -38 -46 -113 -64 -168 -42 -129
-49 -113 -49 110 0 266 46 462 165 700 118 236 296 443 507 589 62 43 113 80
113 83 0 6 -48 -22 -174 -104 -54 -35 -103 -62 -108 -61 -21 7 296 227 396
274 20 10 36 21 36 25 0 11 -147 -52 -230 -98 -36 -20 -128 -68 -205 -107
-140 -72 -233 -129 -313 -194 -23 -19 -45 -33 -48 -30 -8 8 60 160 111 250 67
117 108 171 200 267 102 106 204 184 369 282 215 128 252 152 235 156 -27 6
-220 -67 -339 -128 l-115 -59 46 43 c68 63 213 163 356 245 137 79 563 295
563 286 0 -3 -15 -24 -34 -47 -56 -68 -104 -159 -137 -258 -28 -81 -33 -112
-37 -224 -3 -109 -1 -144 17 -219 28 -117 89 -233 166 -312 75 -79 96 -83 56
-11 -16 28 -46 95 -66 147 -34 86 -38 104 -38 190 0 58 6 120 17 160 17 65
109 261 130 279 8 7 11 -20 12 -97 1 -66 8 -132 18 -172 28 -106 124 -286 142
-267 3 3 1 45 -5 94 -18 143 -19 138 38 139 79 1 154 56 226 167 28 43 10 43
-47 0 -29 -21 -66 -45 -81 -51 -30 -13 -88 -15 -126 -5 -22 6 -23 9 -17 69 8
78 48 222 81 289 48 99 126 166 216 186 74 17 159 -23 174 -81 6 -23 5 -23
-20 7 -103 127 -305 7 -305 -180 0 -54 3 -62 34 -93 30 -30 40 -34 85 -34 29
0 64 6 79 14 56 29 112 110 112 161 0 14 4 25 9 25 14 0 41 -65 41 -99 0 -52
23 -35 63 45 21 42 40 74 43 72 2 -3 14 -38 25 -79 24 -87 35 -102 55 -75 13
19 14 19 14 -6 0 -30 38 -219 46 -227 2 -3 2 49 -2 114 -3 66 -1 188 5 270 16
222 42 297 140 393 127 125 294 160 361 75 31 -40 26 -59 -9 -34 -46 33 -86
27 -163 -26 -110 -74 -164 -154 -205 -303 -15 -54 -17 -94 -14 -235 9 -371 7
-456 -13 -530 -32 -120 -108 -245 -200 -334 -48 -46 -45 -56 7 -30 63 32 112
74 153 132 78 108 150 171 314 272 130 80 269 148 370 181 72 23 103 27 200
28 150 1 190 -14 190 -71 0 -38 -14 -66 -53 -111 l-21 -22 -12 30 c-12 27 -18
30 -57 30 -53 0 -200 -41 -276 -77 -62 -29 -213 -127 -281 -181 -25 -20 -124
-113 -220 -207 -96 -94 -195 -187 -220 -207 -68 -55 -156 -81 -270 -82 -102 0
-171 19 -245 69 -20 14 -40 25 -45 25 -5 0 25 -43 67 -95 94 -118 133 -140
243 -140 116 0 169 30 305 168 143 146 346 339 351 335 6 -7 -124 -237 -180
-317 -54 -79 -126 -157 -191 -209 -51 -41 -33 -41 31 0 70 45 311 291 365 373
26 39 76 116 113 172 37 56 71 105 77 108 14 9 -93 -203 -144 -284 -100 -160
-222 -296 -352 -391 -71 -53 -58 -63 39 -30 124 41 262 160 376 326 29 42 95
160 146 263 51 102 93 182 94 178 0 -4 -7 -22 -17 -40 -9 -18 -40 -97 -70
-176 -29 -79 -67 -169 -83 -200 l-29 -56 40 45 c57 62 139 181 184 265 85 159
107 196 111 193 5 -6 -60 -166 -97 -240 -39 -76 -190 -276 -275 -363 -150
-153 -302 -244 -454 -271 -125 -22 -313 -22 -404 0 -192 46 -339 176 -379 336
l-14 54 -89 26 c-346 100 -543 413 -491 780 l7 55 -35 -62 c-55 -95 -76 -166
-82 -275 -10 -169 23 -300 109 -432 21 -33 37 -63 36 -67 -2 -4 -42 -43 -89
-86 -158 -144 -256 -259 -388 -454 -43 -64 -102 -138 -132 -165 -196 -180
-304 -336 -315 -456 -7 -72 16 -115 82 -148 45 -23 60 -25 179 -25 152 0 201
11 410 91 77 30 167 59 200 64 181 31 251 64 345 159 76 77 128 170 164 292
17 59 25 75 25 53 1 -43 -43 -193 -75 -257 -57 -113 -132 -176 -266 -226 -69
-25 -75 -30 -143 -117 -38 -50 -91 -118 -117 -150 -27 -33 -48 -62 -48 -66 0
-5 21 8 47 28 52 39 243 139 243 126 0 -4 -28 -26 -62 -49 -192 -128 -348
-336 -348 -464 0 -22 7 -56 17 -77 l16 -37 7 55 c10 75 21 100 82 181 60 80
77 79 23 -2 -70 -106 -72 -192 -10 -286 22 -32 62 -115 91 -185 108 -267 282
-528 505 -762 358 -375 714 -566 1054 -566 173 0 280 35 354 115 52 56 71 104
71 174 -1 89 -15 134 -110 333 -148 311 -205 491 -217 672 -5 84 -1 129 22
266 32 189 29 255 -11 337 -80 165 -274 185 -476 50 -311 -208 -625 -347 -918
-407 -177 -36 -293 -19 -318 48 -27 71 -24 95 18 161 36 56 48 66 113 96 91
42 327 93 327 70 0 -3 -16 -25 -35 -51 -42 -55 -45 -94 -11 -129 37 -37 85
-41 189 -15 377 94 648 365 741 741 20 83 23 88 71 124 130 97 253 241 320
375 31 61 77 191 71 198 -3 2 -17 -16 -32 -40 -52 -84 -96 -148 -101 -148 -2
0 -1 9 2 20 4 12 1 27 -5 35 -10 12 -18 11 -53 -1 -53 -19 -177 -31 -177 -17
0 6 15 16 33 23 99 40 249 117 306 158 88 62 216 194 307 315 87 115 121 173
187 317 44 97 56 112 161 220 133 136 151 172 120 237 -27 55 -76 76 -196 81
-53 2 -127 -1 -164 -7 -36 -7 -68 -10 -71 -7 -3 2 -8 19 -13 38 -4 18 -28 101
-53 183 -69 230 -95 367 -100 531 -3 73 -8 98 -28 134 -28 51 -94 105 -147
120 -50 14 -158 12 -209 -5z m88 -293 c-5 -10 -23 -64 -40 -121 -43 -146 -55
-283 -41 -485 6 -95 7 -172 2 -186 -12 -32 -27 196 -27 410 0 185 16 261 74
353 29 45 52 66 32 29z m249 -127 c18 -157 110 -516 146 -573 8 -12 12 -27 9
-32 -9 -14 -35 -12 -35 2 0 7 -13 55 -29 108 -63 205 -106 407 -116 550 -9
120 9 81 25 -55z m-192 -32 c0 -65 10 -192 21 -282 21 -168 28 -344 11 -306
-5 11 -13 76 -19 145 -6 69 -17 184 -25 255 -10 91 -12 153 -6 205 5 41 9 81
10 88 0 6 2 12 4 12 2 0 4 -53 4 -117z m-707 -103 c20 -16 21 -19 7 -20 -10 0
-24 -16 -34 -35 -17 -38 -47 -60 -65 -50 -6 4 -7 24 -3 51 6 40 4 44 -14 44
-25 0 -68 -50 -77 -89 -13 -62 43 -120 104 -106 34 7 63 36 91 91 l21 39 -5
-38 c-13 -101 -150 -174 -211 -112 -38 38 -30 119 18 189 38 54 125 73 168 36z
m654 -320 c26 -231 15 -354 -33 -386 -25 -16 -25 -16 -18 7 25 82 27 122 22
389 -5 294 -5 294 29 -10z m235 -26 c13 -59 20 -110 16 -120 -7 -17 -9 -17
-18 6 -5 14 -16 77 -24 140 -21 173 -18 170 26 -26z m-1671 -1015 c28 -23 33
-17 -64 -74 -82 -49 -217 -147 -310 -225 -42 -36 -91 -76 -109 -90 l-31 -24
26 29 c128 147 241 260 353 356 85 72 84 72 135 28z m81 -178 c0 -5 -10 -13
-21 -16 -37 -12 -309 -199 -423 -291 -169 -136 -476 -454 -476 -494 0 -6 53
33 118 88 152 127 277 225 377 293 91 63 199 129 210 129 3 0 -20 -24 -52 -52
-146 -131 -331 -325 -403 -423 -19 -25 61 38 165 130 77 68 195 167 300 250
35 28 44 33 30 15 -11 -14 -54 -68 -96 -120 -75 -95 -123 -168 -147 -225 l-12
-30 24 27 c13 15 26 30 28 35 8 18 349 346 354 340 9 -9 -29 -88 -94 -194 -33
-54 -63 -109 -67 -123 l-8 -25 23 20 c37 33 117 138 176 231 53 83 56 86 49
49 -10 -62 -53 -185 -86 -244 -16 -30 -27 -56 -25 -59 10 -9 103 89 135 143
19 31 50 102 69 158 33 93 36 112 36 219 1 64 2 115 4 113 13 -13 33 -124 33
-189 -1 -199 -69 -370 -194 -482 -85 -76 -129 -93 -322 -124 -38 -6 -125 -33
-193 -60 -159 -64 -256 -90 -369 -97 -150 -10 -213 26 -213 120 0 109 155 307
387 494 97 78 410 286 496 330 55 28 150 65 185 72 1 1 2 -3 2 -8z m975 -792
c-46 -203 -185 -408 -361 -534 -152 -109 -409 -196 -452 -153 -21 21 -13 55
26 102 43 52 96 155 105 204 4 17 2 43 -3 57 -9 24 -5 27 123 89 189 92 341
197 522 360 l50 45 3 -51 c2 -27 -4 -81 -13 -119z m317 -507 c16 -9 39 -33 51
-52 20 -31 22 -48 21 -160 0 -74 -7 -159 -17 -209 -49 -241 2 -500 165 -845
125 -266 142 -312 142 -392 1 -61 -3 -76 -26 -112 -130 -196 -598 -148 -965
100 -244 164 -513 443 -697 723 -77 116 -181 303 -174 311 7 6 57 -52 127
-151 227 -316 509 -622 719 -779 161 -121 361 -210 543 -242 114 -19 194 -13
270 22 65 31 95 57 121 107 24 48 18 56 -21 28 -121 -87 -392 -60 -636 62 -86
43 -212 124 -234 151 -13 15 -11 16 14 6 15 -6 39 -19 54 -29 14 -10 67 -39
116 -64 180 -90 358 -127 508 -107 77 11 124 26 114 36 -3 3 -56 12 -117 20
-62 8 -117 17 -122 21 -6 3 13 13 41 23 49 16 107 58 96 68 -3 3 -39 4 -80 3
-80 -2 -95 8 -44 29 26 11 69 61 69 80 0 3 -60 3 -132 1 -83 -2 -159 2 -203
10 l-70 13 73 8 c116 12 230 67 263 125 17 32 7 37 -31 18 -53 -28 -120 -44
-207 -51 -55 -4 -83 -3 -83 4 0 5 12 13 26 16 91 23 264 143 264 183 0 17 -16
13 -110 -27 -93 -40 -185 -67 -277 -80 -113 -17 -135 -8 -33 12 116 23 246 89
333 168 37 34 67 65 67 70 0 4 -44 -15 -97 -41 -54 -27 -138 -61 -188 -76 -80
-24 -106 -27 -240 -27 -123 0 -161 4 -210 20 l-60 20 145 0 c181 0 282 23 425
94 96 48 175 104 163 115 -3 3 -48 -10 -101 -30 -225 -81 -479 -101 -667 -52
-52 14 -115 35 -140 46 l-45 21 55 -8 c30 -4 125 -7 210 -7 217 1 356 37 538
140 144 82 178 130 60 82 -168 -66 -435 -128 -552 -126 l-61 0 85 19 c112 24
166 43 275 95 147 70 234 144 319 269 41 61 31 65 -26 10 -136 -131 -374 -244
-587 -278 -47 -8 -87 -13 -89 -11 -1 1 28 12 65 25 188 62 380 177 541 324 58
53 115 133 106 147 -7 12 -71 -22 -146 -79 -94 -71 -144 -104 -88 -56 60 50
170 164 170 176 0 16 -41 -2 -185 -81 -327 -182 -404 -215 -621 -271 -152 -40
-176 -37 -44 4 260 82 483 189 700 336 71 48 150 88 197 100 51 12 139 3 175
-18z m-3100 -222 c-20 -83 -40 -242 -45 -349 l-2 -54 -34 28 -34 29 7 88 c3
48 20 158 37 245 45 232 38 217 67 153 l24 -55 -20 -85z m115 -147 c-8 -26
-22 -104 -32 -173 -10 -69 -19 -126 -20 -128 -2 -1 -13 2 -27 8 -24 11 -24 14
-21 98 4 99 20 235 35 305 l10 48 34 -55 c35 -55 35 -55 21 -103z m98 -108
c-3 -16 -12 -77 -20 -134 -8 -57 -16 -105 -19 -108 -2 -2 -14 0 -25 7 -20 10
-21 17 -16 93 6 79 22 197 31 226 3 10 13 3 30 -20 19 -26 24 -41 19 -64z m70
-134 c-8 -40 -15 -87 -15 -105 0 -38 -8 -50 -25 -36 -11 9 -5 135 10 219 6 34
7 34 26 14 19 -18 19 -22 4 -92z m86 -62 c-6 -24 -11 -63 -11 -86 0 -44 -5
-49 -30 -33 -16 10 -16 64 2 148 11 52 12 53 30 34 16 -16 18 -24 9 -63z m72
-45 c-5 -78 -14 -124 -24 -119 -10 7 -13 124 -3 150 12 29 29 9 27 -31z m72
-26 c3 -7 1 -41 -3 -75 -5 -43 -11 -60 -19 -55 -7 5 -9 29 -6 75 5 62 17 85
28 55z"/>
<path d="M4111 2934 c-50 -100 -105 -180 -98 -144 26 120 19 127 -32 28 -17
-35 -41 -74 -52 -88 l-20 -25 7 54 c9 76 -9 64 -65 -42 -25 -48 -48 -87 -51
-87 -4 0 -5 13 -2 30 2 16 1 42 -3 57 -7 26 -10 22 -45 -54 -40 -86 -60 -104
-60 -54 0 75 -25 80 -40 7 -6 -29 -17 -62 -25 -72 -13 -18 -14 -17 -15 12 0
37 -19 94 -30 94 -5 0 -8 -19 -8 -42 1 -65 -39 -156 -89 -207 -23 -24 -43 -48
-43 -52 0 -4 8 -17 18 -29 23 -29 59 -23 159 24 279 134 477 352 528 582 10
41 15 78 12 81 -3 3 -24 -30 -46 -73z"/>
<path d="M2381 2602 c-6 -10 -14 -63 -20 -116 -18 -174 15 -350 110 -586 52
-130 110 -230 133 -230 13 0 53 -76 44 -85 -3 -3 -53 40 -112 96 -117 111
-238 256 -328 393 -32 48 -58 83 -58 78 0 -26 71 -224 93 -259 47 -75 48 -88
3 -38 -25 28 -46 46 -46 42 0 -17 84 -156 136 -224 30 -39 85 -100 123 -135
75 -71 230 -179 285 -199 l36 -13 0 -96 c0 -161 35 -277 91 -309 39 -22 78 -6
129 52 76 88 128 136 170 157 22 11 40 26 40 33 0 7 -16 29 -36 48 -83 79
-133 179 -204 412 -58 186 -109 319 -120 312 -5 -3 -6 -14 -3 -25 3 -11 0 -20
-6 -20 -7 0 -11 23 -11 63 0 81 -13 62 -41 -63 -12 -52 -24 -97 -26 -99 -8
-10 -78 70 -132 150 -93 137 -144 280 -196 542 -16 75 -32 137 -36 137 -5 0
-13 -8 -18 -18z m504 -1181 c4 -300 12 -399 29 -356 4 11 12 76 17 145 13 171
16 176 18 27 1 -98 4 -128 14 -125 16 6 36 64 36 111 1 20 6 37 11 37 6 0 10
-27 10 -60 0 -33 4 -60 10 -60 6 0 10 6 10 14 0 18 6 22 53 30 47 9 51 -12 7
-37 -16 -10 -55 -47 -86 -82 -55 -63 -103 -93 -123 -80 -49 30 -69 188 -52
427 7 101 15 223 18 273 11 170 24 51 28 -264z"/>
</g>
</svg>
